<!DOCTYPE svg PUBLIC "-//W3C//DTD SVG 1.1//EN" "http://www.w3.org/Graphics/SVG/1.1/DTD/svg11.dtd">
<svg xmlns="http://www.w3.org/2000/svg" viewBox="0 0 500 500">
<path fill="#aedbed" stroke="#aedbed" d="M176 96c0 52.8.113 96.338.25 96.75.137.412 6.216.791 13.508.842 7.292.05 13.555.387 13.917.75.362.362-5.76.658-13.604.658-12.805 0-14.558.211-17.16 2.063-1.593 1.135-3.42 1.74-4.059 1.346-.747-.462-.89-.28-.4.513.448.725-.063 1.999-1.244 3.099-1.958 1.824-2.016 1.822-2.513-.081-.524-2.001-3.695-1.752-3.695.289 0 .586.635.489 1.5-.229 1.863-1.546 1.906-.119.069 2.303-1.016 1.34-1.492 1.469-1.856.5-.268-.717-.379.349-.246 2.368.182 2.76-.185 3.783-1.475 4.121-.944.247-2.422 1.865-3.286 3.595-.863 1.731-1.181 2.907-.707 2.614.475-.294 1.188-.007 1.586.637.485.785.287.901-.6.352-.989-.61-1.154-.332-.653 1.096.541 1.542.283 1.456-1.33-.447-1.101-1.298-2.002-1.887-2.002-1.309 0 .579.45 1.33 1 1.67.55.34.997 1.604.993 2.809-.006 2-.175 1.934-1.943-.747-1.065-1.615-1.734-3.264-1.487-3.664.247-.4.102-.878-.323-1.063-1.605-.697-8.313-13.202-7.8-14.54.295-.769.111-1.136-.409-.814-.52.321-1.641-.76-2.491-2.403-1.983-3.836-4.904-4.388-20.825-3.932l-12.364.354-4.334 4.25c-2.385 2.338-4.697 4.25-5.139 4.25-1.37 0-1.103 95.413.276 98.438 1.479 3.247 2.536 3.478 17.346 3.801 10.318.224 12.245.016 13.75-1.489.962-.962 1.413-1.75 1-1.75-.412 0 1.163-1.748 3.5-3.884l4.25-3.885.063-14.365c.04-8.971.384-13.573.917-12.255 1.16 2.872 2.28 3.158 11.559 2.949 8.52-.192 11.762-1.121 9.318-2.67-.999-.632-1.027-.863-.107-.875.688-.008 1.25-.888 1.25-1.956s.338-2.15.75-2.405c.412-.254.667 1.631.565 4.191l-.186 4.655.839-5.353c1.378-8.795 2.716-7.975 1.801 1.103-.458 4.537-.598 13.313-.312 19.5.327 7.094.154 11.25-.469 11.25-1.892 0-.972 4.107 1.467 6.545 2.739 2.739 4.469 3.058 6.547 1.205 1.18-1.052 1.206-.99.167.391-1.125 1.497-.458 1.612 7.549 1.308 9.527-.362 8.728.074-1.977 1.078-3.718.349-6.504 1.048-6.191 1.554.312.505.091.919-.491.919s-1.059-.45-1.059-1-.675-1-1.5-1c-1 0-1.5 1-1.5 3 0 1.65.45 3 1 3s1-.45 1-1 1.8-1 4-1 4-.45 4-1-.75-1-1.667-1c-.916 0-1.438-.228-1.159-.507.791-.791 6.826.652 6.826 1.632 0 .481-.9.875-2 .875-1.333 0-2 .667-2 2 0 1.733-.667 2-5 2-2.75 0-5 .45-5 1s2.25 1 5 1h5v88c0 87.333.015 88 2 88 1.333 0 2 .667 2 2 0 1.992.667 2 160 2h160V0H176v96m-10 98.032c0 2.611 3.43 3.357 6.708 1.458 1.536-.889 1.892-1.313.792-.94-5.129 1.736-6.03 1.666-3.277-.255l2.724-1.9-3.474-.099c-2.737-.077-3.473.29-3.473 1.736m11.75-1.326c1.238.238 3.262.238 4.5 0 1.238-.239.225-.434-2.25-.434s-3.488.195-2.25.434m27.329.877c.048 1.165.285 1.402.604.605.289-.722.253-1.585-.079-1.917-.332-.332-.568.258-.525 1.312m2 9c.048 1.165.285 1.402.604.605.289-.722.253-1.585-.079-1.917-.332-.332-.568.258-.525 1.312m.289 44.417c-.052 22.825.169 40.375.493 39 .403-1.711.779-.448 1.191 4l.603 6.5.093-8.5c.052-4.675-.208-7.825-.577-7-.369.825-.904-15.825-1.189-37l-.518-38.5-.096 41.5m11.078-37.913c-.369.598-.267 1.492.227 1.986.531.531.898.087.898-1.087 0-2.273-.185-2.42-1.125-.899M148 211c0 .55.45 1 1 1s1-.45 1-1-.45-1-1-1-1 .45-1 1m9.98 2.524c-.696.838-1.071 1.718-.835 1.955.237.236.98-.449 1.651-1.524 1.452-2.325.968-2.58-.816-.431m-4.98.976c0 .825.177 1.5.393 1.5.216 0 .652-.675.969-1.5.316-.825.139-1.5-.393-1.5-.533 0-.969.675-.969 1.5m78.813 54.183c.721.289 1.584.253 1.916-.079.332-.332-.258-.568-1.312-.525-1.165.048-1.402.285-.604.604m-2.549 2.035c1.52.229 3.77.223 5-.014 1.23-.237-.014-.425-2.764-.418-2.75.008-3.756.202-2.236.432m9.486-.056c.688.278 1.813.278 2.5 0 .688-.277.125-.504-1.25-.504s-1.937.227-1.25.504m-19.279 3.291c.569.92.227 1.086-1.263.613-2.097-.666-2.599 1.466-.743 3.155.47.428.532.217.136-.471-.439-.764-.136-1.25.781-1.25 1.993 0 2.952-1.675 1.48-2.585-.767-.474-.902-.289-.391.538M161.232 291c0 1.925.206 2.712.457 1.75.252-.962.252-2.538 0-3.5-.251-.962-.457-.175-.457 1.75m45.926 3c0 1.375.227 1.938.504 1.25.278-.687.278-1.812 0-2.5-.277-.687-.504-.125-.504 1.25m-2.52 4.5c-.316.825-.288 2.249.063 3.164.464 1.208.276 1.44-.686.846-.881-.545-1.085-.433-.61.335.984 1.593 1.127 1.521 3.155-1.595 1.727-2.655 1.726-2.698-.03-1.258-1.678 1.377-1.764 1.319-1.107-.75.789-2.486.126-3.114-.785-.742m-70.882 1.164c.691.279.959.988.596 1.576-.394.637-.188.777.51.345 1.377-.85.55-2.62-1.171-2.506-.852.056-.834.223.065.585m26.323 2.919c.048 1.165.285 1.402.604.605.289-.722.253-1.585-.079-1.917-.332-.332-.568.258-.525 1.312m2.921-.69c0 .491.652 1.143 1.449 1.449.969.372 1.265.076.893-.893-.607-1.582-2.342-1.994-2.342-.556m-41.187 5.79c.721.289 1.584.253 1.916-.079.332-.332-.258-.568-1.312-.525-1.165.048-1.402.285-.604.604m74.937 1.979c.688.278 1.813.278 2.5 0 .688-.277.125-.504-1.25-.504s-1.937.227-1.25.504m21.063.021c.721.289 1.584.253 1.916-.079.332-.332-.258-.568-1.312-.525-1.165.048-1.402.285-.604.604M176 319c0 .556 2.667 1 6 1s6-.444 6-1-2.667-1-6-1-6 .444-6 1" fill-rule="evenodd"/>
<path fill="#b1ddeb" stroke="#b1ddeb" d="M348 96v96h6c3.3 0 6 .415 6 .922 0 .507 4.285.931 9.523.942 5.238.011 9.287-.362 8.999-.829-.289-.467.488-.571 1.727-.232 1.845.505 1.933.682.489.982-.969.202-1.575.67-1.346 1.041.229.371-9.103.739-20.737.818-24.824.17-26.432.258-24.673 1.345 2.228 1.377-2.126 3.067-4.508 1.749-1.77-.979-1.832-.919-.602.585.968 1.182 1.024 1.677.191 1.677-.649 0-.922.419-.606.931.317.512.118 1.213-.441 1.559-.575.355-1.023-.374-1.031-1.681-.028-4.247-3.335 3.29-4.681 10.67-.199 1.088-.798 2.415-1.333 2.95-.534.534-.971 2.231-.971 3.771s-.45 2.8-1 2.8-1 1.35-1 3c0 1.911-.51 3-1.406 3-.886 0-1.224.698-.913 1.887.271 1.038.009 2.186-.582 2.552-.681.421-.862.003-.493-1.137.44-1.362.345-1.469-.389-.441-.535.748-.75 2.211-.478 3.25.3 1.146-.024 1.889-.822 1.889-1.024 0-1.05.267-.117 1.2 1.451 1.451 1.6 3.165.2 2.3-.567-.351-1 .49-1 1.941 0 1.407-.45 2.559-1 2.559s-1 .9-1 2-.401 2-.891 2c-.489 0-1.118 1.463-1.395 3.25-.278 1.787-.787 4.375-1.13 5.75-.521 2.082-.47 2.166.302.5.726-1.566.902-1.077.808 2.25-.065 2.338-.452 4.25-.86 4.25-.407 0-.874 7.383-1.037 16.406-.164 9.024.04 16.197.453 15.941.413-.256.75.811.75 2.371 0 3.443 2.493 7.256 4.807 7.352 1.383.058 1.327.228-.307.93-1.286.553 2.464.937 10.5 1.078 14.526.254 14.925.285 17.293 1.357 2.284 1.034 3.63-.213 1.678-1.555-1.138-.782-.989-.877.654-.418 1.76.491 2.125.162 2.125-1.916 0-1.38-.354-2.291-.787-2.023-1.698 1.049-.19-2.884 1.61-4.2 1.546-1.131 1.985-2.937 2.277-9.362.271-5.968.711-7.961 1.756-7.961 1.069 0 1.394 1.764 1.394 7.571 0 7.746-1.124 10.429-4.37 10.429-2.696 0-2.812 1.96-.186 3.156 2.789 1.271 3.515 4.844.985 4.844-1.931 0-3.83 1.911-4.223 4.25-.179 1.066.338 1.75 1.322 1.75 4.607 0 4.472-2.848 4.472 94.429V500h152V0H348v96m-17.189 96.752c1.027.357.963.84-.293 2.228-1.467 1.621-1.468 1.825-.009 2.385.877.337 1.351.218 1.054-.263-.692-1.119 2.063-3.451 3.227-2.732.482.298.876-.001.875-.664-.001-.663-1.389-1.252-3.084-1.308-1.694-.056-2.491.103-1.77.354M337 193c0 .55.675 1 1.5 1s1.5-.45 1.5-1-.675-1-1.5-1-1.5.45-1.5 1m-71.5 3.007c-21.906.504-24.415.743-28.763 2.743-2.619 1.204-4.982 2.203-5.25 2.22-.268.016-1.403.946-2.523 2.066-1.121 1.121-2.583 1.723-3.25 1.34-.668-.383-.893-.341-.5.094.392.435-1.294 3.086-3.748 5.891-5.494 6.28-5.973 8.431-5.937 26.639.03 15.104.571 17.484 5.126 22.554 2.03 2.26 10.408 6.446 12.9 6.446.867 0 2.334.396 3.261.881.926.484 4.834 1.17 8.684 1.524 16.729 1.538 16.182 2.343-1.679 2.47-14.259.101-17.968.415-19.178 1.625-.825.825-1.978 1.5-2.563 1.5-.585 0-1.625.9-2.312 2-.687 1.1-1.795 2-2.463 2-2.806 0-3.759 20.725-1.151 25.014l1.853 3.045 28.746-.375c28.13-.367 35.247-.944 35.247-2.86 0-.523.788-.87 1.75-.772 3.252.331 4.25-.046 4.25-1.606 0-2.85 5.862-8.186 7.081-6.446.83 1.186.922 1.044.441-.676-.371-1.323-.081-2.499.739-3 4.739-2.896 6.205-8.303 6.506-23.997.185-9.636-.084-15.405-.738-15.809-.566-.35-1.029-1.53-1.029-2.622 0-2.825-4.458-7.015-6.694-6.292-1.515.49-1.564.408-.306-.51 1.273-.929 1.16-1.187-.75-1.711-1.238-.339-2.25-1.066-2.25-1.616s-.901-.765-2.001-.477c-1.101.288-1.758.129-1.459-.354.75-1.215-3.699-2.195-10.561-2.326-3.174-.06-5.535-.497-5.247-.971.288-.473-1.516-.698-4.009-.5-2.493.199-4.323.023-4.069-.389.255-.412-.575-.782-1.845-.82-1.27-.039-3.209-.479-4.309-.979-1.294-.587 3.827-.9 14.5-.887 21.275.028 20.541.077 19.184-1.28-.819-.819-.195-1.98 2.351-4.382l3.465-3.268v-12.098c0-8.807-.34-12.204-1.25-12.484-3.17-.976-7.837-1.061-30.25-.545m-160.58 1.816c-1.419.922-3.781 2.98-5.25 4.573L97 205.292v48.163c0 40.023.24 48.491 1.42 50.104 1.749 2.392 28.559 3.004 29.337.669.228-.682 2.165-2.925 4.305-4.984l3.891-3.744.12-14.75c.066-8.113.301-14.75.523-14.75.222 0 1.304.9 2.404 2 1.603 1.603 3.333 2 8.721 2h6.721l5.779-5.719 5.779-5.718v22.162c0 27.164-1.255 25.275 16.788 25.275 11.608 0 16.212-.849 16.212-2.99 0-1.072 4.993-6.263 5.015-5.215.009.388.452.03.985-.795.591-.915.975-20.49.985-50.215.018-57.187 2.157-50.785-16.969-50.785-18.084 0-20.95 1.862-30.406 19.75-3.901 7.38-5.316 9.227-7 9.134-1.707-.094-1.773-.204-.348-.576.969-.253 1.501-.883 1.181-1.4-.32-.517-.995-.685-1.501-.372-.505.312-.686-.04-.401-.783.285-.743-1.212-4.029-3.328-7.302-3.983-6.162-4.203-6.615-4.228-8.701-.011-.846-.355-.765-1.066.25-.844 1.206-.939 1.099-.481-.55.4-1.44-.439-3.151-2.819-5.75l-3.389-3.7-13.865.073c-11.194.059-14.362.396-16.445 1.75m94.163-.458c.23.2 1.542.949 2.917 1.663 2.287 1.189 2.383 1.158 1.128-.364-.755-.915-2.068-1.664-2.917-1.664-.849 0-1.357.164-1.128.365m94.573 2.18c.304.794.956 1.195 1.449.89 1.24-.766 1.126-1.132-.554-1.777-.967-.371-1.265-.076-.895.887m88.423.038c.048 1.165.285 1.402.604.605.289-.722.253-1.585-.079-1.917-.332-.332-.568.258-.525 1.312m4.921.476c0 1.132.43 1.793.956 1.468.526-.325.703-1.252.393-2.059-.793-2.067-1.349-1.824-1.349.591m-251.447-.144a1.116 1.116 0 0 0 .362 1.532c.521.322 1.21.159 1.532-.362a1.116 1.116 0 0 0-.362-1.532 1.116 1.116 0 0 0-1.532.362M389.2 202.46c-.618 1.358-.743 2.704-.277 2.993.467.288 1.085-.709 1.374-2.215.686-3.571.3-3.844-1.097-.778m-251.636 1.833c.376.986.935 1.541 1.243 1.233.308-.307.001-1.114-.683-1.793-.988-.98-1.102-.865-.56.56M320.71 206c-.287 1.1-.115 2 .384 2 .498 0 .906-.9.906-2s-.173-2-.383-2c-.211 0-.619.9-.907 2m68.244 3.086c-.614 1.147-.837 2.365-.495 2.706.341.341.879-.367 1.194-1.574.316-1.208 1.043-1.906 1.615-1.552.604.373.742.159.327-.511-.986-1.597-1.358-1.467-2.641.931m2.162 2.082c-.064.918-.375 2.493-.692 3.5-.545 1.736-.515 1.739.568.051.628-.98.939-2.555.691-3.5-.406-1.549-.462-1.554-.567-.051m-70.771 1.375c-.326.849-.369 1.767-.096 2.04.274.273.737-.422 1.03-1.543.624-2.383-.069-2.751-.934-.497m-173.886 4.524c-.363.586-.445 1.281-.183 1.543s.743-.218 1.069-1.067c.676-1.762.1-2.072-.886-.476M395.158 222c0 1.375.227 1.938.504 1.25.278-.687.278-1.812 0-2.5-.277-.687-.504-.125-.504 1.25m1.921 4.583c.048 1.165.285 1.402.604.605.289-.722.253-1.585-.079-1.917-.332-.332-.568.258-.525 1.312m-105.093.447c-1.257.794-1.216.942.264.955.962.008 1.75.54 1.75 1.182 0 .641.266.9.592.575 1.246-1.246-1.086-3.673-2.606-2.712m61.174 7.72c-.088 1.787-.559 3.25-1.047 3.25-.487 0-1.12 1.238-1.406 2.75-.286 1.512-.81 3.65-1.165 4.75-.597 1.851-.265 1.974 4.47 1.649 4.617-.316 4.983-.511 3.759-2-2.178-2.647-3.682-6.388-4.08-10.149l-.371-3.5-.16 3.25m-71.347 1.933c.721.289 1.584.253 1.916-.079.332-.332-.258-.568-1.312-.525-1.165.048-1.402.285-.604.604m6 3c.721.289 1.584.253 1.916-.079.332-.332-.258-.568-1.312-.525-1.165.048-1.402.285-.604.604m69.266 1.9c.048 1.165.285 1.402.604.605.289-.722.253-1.585-.079-1.917-.332-.332-.568.258-.525 1.312m-5.461 1.969c-.341.89-.173 1.291.393.941.544-.336.989-.108.989.507s.43.852.956.527c1.062-.656.283-3.527-.956-3.527-.432 0-1.054.698-1.382 1.552m-54.203 4.586c-.432.698-.292.904.345.51.588-.363 1.297-.095 1.576.596.362.899.529.917.585.065.114-1.721-1.656-2.548-2.506-1.171M404.829 252c.209 2.2.559 4 .776 4 .217 0 .395-1.8.395-4s-.349-4-.776-4c-.427 0-.605 1.8-.395 4m-104.75 5.583c.048 1.165.285 1.402.604.605.289-.722.253-1.585-.079-1.917-.332-.332-.568.258-.525 1.312m60.842 26.167c-.047 1.045-.282 1.247-.583.5-.68-1.686-2.338-1.591-2.338.133 0 .761.9 1.619 2 1.907 1.591.416 2 .03 2-1.884 0-2.742-.959-3.325-1.079-.656m44.311 7.25c0 1.925.206 2.712.457 1.75.252-.962.252-2.538 0-3.5-.251-.962-.457-.175-.457 1.75m-54.074 7c0 1.375.227 1.938.504 1.25.278-.687.278-1.812 0-2.5-.277-.687-.504-.125-.504 1.25m9.406-.293c-.542 1.425-.428 1.54.56.56.684-.679.991-1.486.683-1.793-.308-.308-.867.247-1.243 1.233M307 305.941c0 .518.445 1.216.989 1.552.566.35.734-.051.393-.941-.665-1.732-1.382-2.049-1.382-.611m53 3.118c0 .582.45.781 1 .441s1-.816 1-1.059-.45-.441-1-.441-1 .477-1 1.059m-31.917 1.306c.23.2 3.312.615 6.849.921 4.018.348 5.895.217 5-.349-1.323-.837-12.784-1.391-11.849-.572M334 315c0 .55-.9 1-2 1s-2 .45-2 1 1.35 1 3 1 3 .45 3 1 .9 1 2 1c1.431 0 1.978-.64 1.921-2.25-.043-1.238-.306-1.687-.583-1-.81 2.007-3.338 1.438-3.338-.75 0-1.1-.45-2-1-2s-1 .45-1 1" fill-rule="evenodd"/>
<path fill="#c42ccd" stroke="#c42ccd" d="M101.467 201.467 98 204.933v48.998C98 311.304 96.044 305 113.848 305h11.98l3.586-3.482 3.586-3.483v-25.24c0-24.087.078-25.129 1.708-22.801 1.138 1.625 1.638 4.05 1.498 7.268-.386 8.876 3.328 12.738 12.251 12.738 6.053 0 11.199-4.395 16.702-14.266 4.015-7.201 6.903-9.622 3.402-2.851-1.285 2.483-1.561 7.18-1.561 26.532 0 27.911-1.441 25.585 15.852 25.585 12.791 0 15.148-.406 15.148-2.607 0-.766.686-1.393 1.525-1.393 3.125 0 3.475-5.219 3.475-51.843 0-41.287-.187-46.978-1.607-49.007-1.569-2.24-1.949-2.286-16.043-1.972l-14.435.322-3.384 4c-1.861 2.2-5.779 8.827-8.707 14.726-6.932 13.967-6.954 13.962-16.604-3.402-9.007-16.206-8.407-15.824-24.8-15.824h-12.487l-3.466 3.467m139.033-2.441c-6.687 1.35-9.336 2.741-14.675 7.71-8.268 7.694-9.804 12.132-9.815 28.365-.018 24.365 4.057 28.679 30.49 32.285 26.96 3.677 25.575 6.614-3.118 6.614-20.897 0-23.382.273-23.382 2.572 0 .747-.9 1.839-2 2.428-3.118 1.669-3.045 23.37.085 25.045 1.436.769 10.842 1.013 30.25.786l28.165-.331 5.102-2.634c13.464-6.953 17.362-14.456 17.332-33.366-.039-24.878-3.5-28.585-30.246-32.392-16.038-2.283-19.895-4.501-15.488-8.908 1.763-1.763 2.8-1.467 2.8.8 0 1.915.667 2 15.649 2h15.649l3.351-3.45 3.351-3.451v-11.574c0-11.504-.016-11.58-2.565-12.55-3.044-1.157-45.156-1.115-50.935.051m94-.073c-5.445 2.25-6.636 4.688-21.778 44.547l-3.039 8-.43 25.886c-.347 20.89-.172 26.05.908 26.735.737.467 7.038.855 14.003.864l12.664.015 3.586-3.482 3.586-3.483v-11.017c0-9.127.257-11.018 1.5-11.018.833 0 1.5.889 1.5 2 0 1.852.667 2 9 2h9v10.929c0 14.516-.513 14.074 16.321 14.06l13.179-.01 3.25-3.346 3.25-3.346v-22.433c0-24.937-.268-26.631-7.032-44.468-10.952-28.882-11.928-31.047-14.531-32.233-2.949-1.344-41.751-1.516-44.937-.2m18.164 27.797c-.809 1.339-6.664 20.631-6.664 21.96 0 .972 2.609 1.29 10.583 1.29 8.019 0 10.484-.303 10.173-1.25-.226-.687-1.534-1.385-2.907-1.549-2.166-.26-2.788-1.272-4.705-7.655-1.215-4.045-2.823-7.865-3.573-8.487-.751-.623-1.134-2.016-.851-3.096.488-1.866-1.095-2.801-2.056-1.213" fill-rule="evenodd"/>
<path fill="#050507" stroke="#050507" d="M101.975 201.565c-1.361 3.582-1.305 94.949.06 97.501 1.258 2.349 26.505 2.994 28.765.734.871-.871 1.2-8.23 1.2-26.833 0-14.099.296-25.93.658-26.291.361-.362 2.425 2.826 4.587 7.083 5.264 10.371 7.43 12.241 14.176 12.241 7.005 0 9.118-1.787 14.018-11.859 2.167-4.453 4.138-7.897 4.38-7.655.243.243.357 11.384.253 24.76-.114 14.795.217 25.383.845 27.036L171.95 301h13.091c19.098 0 16.959 6.432 16.959-51 0-47.352-.062-48.963-1.934-49.965-1.064-.569-8.016-1.035-15.449-1.035h-13.515l-2.395 3.25c-2.47 3.352-7.715 12.619-12.233 21.615-2.917 5.807-5.764 6.787-7.656 2.635-.626-1.375-1.517-2.5-1.979-2.5-.461 0-.839-.408-.839-.907 0-1.496-11.928-22.428-13.264-23.277-.68-.432-7.66-.792-15.511-.801L102.95 199l-.975 2.565m135.964-1.2c-14.737 3.974-19.159 12.008-18.515 33.635.666 22.324 5.208 26.202 35.224 30.076 11.688 1.508 12.256 1.936 11.493 8.674-.108.956-5.145 1.25-21.45 1.25-16.817 0-21.718.299-23.25 1.418-2.759 2.016-3.491 19.331-.979 23.165l1.657 2.529 28.691-.306c27.729-.296 28.866-.386 33.947-2.682 11.138-5.034 13.721-10.841 13.652-30.683-.045-12.993-.234-14.396-2.497-18.5-2.865-5.194-11.714-10.26-19.669-11.261-25.7-3.232-24.438-2.837-24.048-7.515l.305-3.665 19.333-.5c23.233-.601 22.167.047 22.167-13.469 0-14.376 1.687-13.544-27.307-13.464-15.797.045-25.776.495-28.754 1.298m94.232.681c-1.048 1.126-3.966 7.538-6.483 14.25a4010.822 4010.822 0 0 1-7.639 20.204c-5.251 13.716-6.205 20.784-5.859 43.386.255 16.622.575 20.357 1.81 21.137 2.035 1.284 24.648 1.236 27.066-.058 1.739-.931 1.934-2.189 1.934-12.5V276h26v11.3c0 7.456.408 11.708 1.2 12.5 1.396 1.396 26.48 1.689 28.616.335 1.032-.655 1.296-5.951 1.221-24.548-.1-25.024-.511-28.14-5.345-40.587-4.685-12.064-10.471-27.486-11.095-29.574-1.866-6.242-2.643-6.426-27.097-6.426-21.303 0-22.517.102-24.329 2.046m19.386 27.177c-.856 1.222-1.569 2.909-1.583 3.75-.014.84-1.139 4.886-2.5 8.992-1.361 4.106-2.474 7.818-2.474 8.25 0 .432 5.083.785 11.295.785h11.294l-3.563-10.75c-1.96-5.912-3.92-11.312-4.354-12-1.326-2.097-6.39-1.49-8.115.973" fill-rule="evenodd"/>
</svg>